<svg xmlns="http://www.w3.org/2000/svg" xmlns:xlink="http://www.w3.org/1999/xlink" width="1080" zoomAndPan="magnify" viewBox="0 0 810 809.999993" height="1080" preserveAspectRatio="xMidYMid meet" version="1.0"><path fill="#90caf9" d="M 591.769531 614.730469 C 575.496094 592.132812 549.28125 578.570312 521.707031 578.570312 L 276.71875 578.570312 C 248.695312 578.570312 222.027344 592.132812 205.753906 615.183594 C 189.480469 638.238281 185.414062 667.617188 194.90625 694.285156 L 213.890625 752.144531 C 226.546875 786.949219 259.542969 810 296.15625 810 L 502.273438 810 C 538.886719 810 571.882812 786.949219 584.539062 752.144531 L 603.523438 694.285156 C 613.015625 667.617188 608.496094 637.785156 591.769531 614.730469 Z M 591.769531 614.730469 " fill-opacity="1" fill-rule="nonzero"/><path fill="#64b5f6" d="M 678.554688 325.445312 C 662.285156 302.847656 636.066406 289.285156 608.496094 289.285156 L 189.933594 289.285156 C 161.910156 289.285156 135.242188 302.847656 118.96875 325.898438 C 102.695312 348.949219 98.628906 378.332031 108.121094 405 L 127.105469 462.855469 C 139.761719 497.660156 172.757812 520.714844 209.371094 520.714844 L 589.058594 520.714844 C 625.671875 520.714844 658.667969 497.660156 671.324219 462.855469 L 690.308594 405 C 699.800781 378.332031 695.28125 348.5 678.554688 325.445312 Z M 678.554688 325.445312 " fill-opacity="1" fill-rule="nonzero"/><path fill="#00adef" d="M 765.339844 36.160156 C 749.070312 13.558594 722.851562 0 695.28125 0 L 103.148438 0 C 75.125 0 48.457031 13.558594 32.183594 36.613281 C 15.910156 59.664062 11.84375 89.046875 21.335938 115.714844 L 40.320312 173.570312 C 52.976562 208.375 85.972656 231.429688 122.585938 231.429688 L 675.84375 231.429688 C 712.457031 231.429688 745.453125 208.375 758.109375 173.570312 L 777.09375 115.714844 C 786.585938 89.046875 782.066406 59.214844 765.339844 36.160156 Z M 765.339844 36.160156 " fill-opacity="1" fill-rule="nonzero"/></svg>